<?xml version="1.0" standalone="no"?>
<!DOCTYPE svg PUBLIC "-//W3C//DTD SVG 20010904//EN"
 "http://www.w3.org/TR/2001/REC-SVG-20010904/DTD/svg10.dtd">
<svg version="1.0" xmlns="http://www.w3.org/2000/svg"
 width="300.000000pt" height="300.000000pt" viewBox="0 0 300.000000 300.000000"
 preserveAspectRatio="xMidYMid meet">
<metadata>
Created by potrace 1.10, written by Peter Selinger 2001-2011
</metadata>
<g transform="translate(0.000000,300.000000) scale(0.100000,-0.100000)"
fill="#000000" stroke="none">
<path d="M1668 2437 c-85 -24 -168 -93 -225 -189 -17 -29 -35 -66 -38 -83 -6
-26 -3 -24 28 20 47 69 129 142 184 167 137 61 303 -13 382 -169 23 -46 47
-181 34 -193 -4 -4 -49 -21 -99 -36 l-90 -29 -46 50 c-26 29 -72 64 -104 80
-52 26 -72 30 -159 33 -77 3 -105 8 -120 21 -11 9 -60 35 -110 56 -81 36 -98
40 -175 40 -69 0 -93 -4 -127 -23 -193 -102 -239 -385 -98 -597 39 -58 105
-126 170 -174 69 -50 294 -156 378 -176 35 -9 34 -17 -3 -49 -47 -39 -101 -49
-210 -40 -52 4 -110 7 -128 7 -73 -3 -112 -59 -112 -163 0 -111 51 -172 160
-192 99 -19 177 2 331 88 52 29 83 26 123 -11 51 -47 44 -131 -17 -221 -68
-102 -179 -157 -317 -157 -132 0 -250 46 -354 136 l-49 43 -1 90 c-1 108 -27
170 -89 215 -86 62 -174 59 -241 -9 -117 -116 -68 -288 98 -342 48 -15 157 -8
189 12 21 14 25 13 75 -32 227 -203 561 -189 714 29 21 30 42 76 49 107 33
149 -100 238 -225 149 -70 -49 -137 -70 -231 -70 -92 0 -135 18 -165 68 -25
40 -27 144 -5 187 22 43 42 46 200 35 125 -9 170 2 227 55 31 30 47 39 62 34
41 -13 142 -67 180 -97 30 -24 36 -26 28 -11 -19 35 -89 92 -152 124 -58 29
-60 31 -46 53 8 12 19 41 26 65 8 33 15 42 33 42 35 0 118 44 168 88 112 100
156 292 93 413 l-14 28 92 30 c51 16 94 29 95 27 1 -1 -4 -30 -12 -65 -17 -71
-56 -167 -143 -357 -34 -72 -73 -165 -87 -207 -30 -91 -50 -226 -35 -241 7 -7
10 -3 10 11 0 54 59 194 160 383 60 113 123 239 139 280 61 158 62 317 1 447
-76 164 -254 261 -402 220z m178 -48 c3 -5 12 -9 20 -9 31 0 95 -55 141 -120
62 -87 90 -234 68 -355 -9 -54 -49 -164 -79 -222 -35 -68 -32 -26 3 47 49 102
55 124 66 251 9 121 -24 227 -97 309 -38 43 -126 100 -154 100 -7 0 -15 4 -18
9 -3 4 6 6 19 3 14 -2 28 -8 31 -13z m-756 -228 c-8 -6 -17 -8 -21 -5 -4 2
-12 -3 -19 -11 -7 -8 -18 -15 -24 -15 -21 0 -95 -84 -118 -135 -19 -41 -23
-66 -22 -145 0 -91 2 -98 41 -175 49 -95 102 -158 187 -222 33 -26 63 -48 65
-50 2 -2 2 -6 -2 -9 -8 -8 -113 61 -164 109 -56 52 -114 146 -137 220 -26 82
-19 234 12 294 32 61 76 108 125 132 42 21 108 31 77 12z m249 -56 l81 -29
-34 -11 c-81 -28 -171 -110 -207 -188 -20 -45 -25 -92 -9 -82 10 6 14 -1 24
-47 13 -57 -11 -24 -69 97 -33 68 -64 124 -68 125 -5 0 -6 -4 -3 -8 6 -11 58
-294 54 -297 -2 -2 -23 36 -48 83 -54 105 -49 96 -54 91 -3 -3 -1 -22 4 -44
17 -83 21 -120 11 -105 -8 12 -16 13 -41 3 -29 -11 -32 -10 -41 13 -68 181 -4
363 149 421 54 20 156 11 251 -22z m147 -50 c26 -19 -1 -20 -36 0 -23 13 -23
14 -4 15 11 0 29 -7 40 -15z m142 -45 c41 -13 132 -76 139 -97 4 -10 -52 -32
-119 -47 -14 -3 -32 -8 -40 -11 -10 -4 -17 8 -26 40 -14 52 -20 54 -115 28
-91 -24 -100 -37 -77 -98 9 -23 13 -25 26 -15 10 9 18 10 25 3 13 -13 -24 -28
-41 -18 -16 10 -84 -13 -97 -33 -6 -11 -22 -22 -35 -24 -13 -3 -32 -9 -42 -13
-18 -8 -19 -5 -12 35 31 194 220 308 414 250z m179 -167 c27 -72 23 -165 -10
-230 -15 -28 -31 -54 -37 -58 -5 -3 -10 -21 -10 -39 0 -27 -29 -88 -30 -62 0
5 -6 4 -12 -2 -24 -19 -111 -62 -126 -62 -8 0 -34 11 -56 24 -23 13 -59 27
-81 30 -57 11 -109 40 -155 88 -39 41 -85 139 -76 163 2 6 23 17 46 24 50 15
56 10 66 -56 3 -23 12 -50 19 -59 11 -16 17 -16 55 -5 23 7 44 10 47 7 3 -2 5
-22 5 -43 0 -52 16 -100 35 -107 11 -5 13 -2 8 11 -16 38 -16 51 -3 56 7 2 5
3 -4 2 -14 -2 -16 3 -11 28 4 21 3 28 -5 23 -20 -12 -13 11 13 42 21 25 22 32
11 47 -10 15 -21 17 -59 11 -26 -4 -47 -4 -47 1 0 4 -3 18 -6 30 -5 19 0 23
36 33 26 7 44 18 47 29 2 10 19 23 37 28 27 8 35 7 43 -6 9 -14 16 -14 54 -4
24 6 44 11 45 10 1 -1 5 -16 8 -32 6 -29 5 -31 -39 -43 -33 -9 -45 -17 -45
-31 0 -35 129 -34 159 2 8 10 5 33 -10 87 -11 40 -17 75 -14 78 6 6 62 28 77
31 3 0 15 -20 25 -46z m-277 -1 c0 -11 -13 -23 -32 -30 -36 -13 -33 -14 -42
15 -6 19 -2 23 26 31 38 11 48 7 48 -16z m141 -16 c-1 -5 -24 -10 -53 -11
l-53 -2 40 13 c44 14 66 14 66 0z m-541 -38 c11 -24 20 -64 20 -90 1 -163 153
-313 330 -326 78 -5 76 -2 44 -79 l-13 -32 -88 46 c-273 146 -347 197 -418
295 -34 46 -43 63 -33 70 23 14 36 9 57 -24 l22 -33 -6 65 -6 65 51 -99 c28
-54 53 -96 54 -95 2 2 -7 65 -20 139 -13 74 -24 136 -24 138 0 1 2 2 5 2 4 0
15 -19 25 -42z m-362 -835 c30 -22 72 -88 72 -113 0 -29 -62 -137 -87 -152
-54 -32 -98 -33 -148 -4 -49 29 -71 56 -85 106 -10 35 -3 83 10 75 5 -3 18 11
30 30 23 38 55 58 108 70 17 3 32 11 32 15 0 13 30 1 68 -27z m72 -226 c0 -37
-4 -46 -25 -55 -50 -23 -59 -14 -27 22 17 19 33 44 37 55 10 32 15 25 15 -22z"/>
<path d="M1525 1649 c-4 -6 -5 -12 -3 -14 7 -7 48 7 48 16 0 13 -37 11 -45 -2z"/>
<path d="M1689 1611 c17 -16 31 -36 31 -45 0 -9 5 -16 10 -16 17 0 11 36 -11
64 -11 14 -30 26 -41 26 -18 0 -17 -3 11 -29z"/>
<path d="M1581 1501 c-25 -83 -25 -78 -2 -84 16 -4 19 4 25 70 4 42 5 77 3 80
-3 2 -14 -27 -26 -66z"/>
<path d="M634 936 c-17 -8 -40 -26 -52 -41 -33 -42 -26 -50 9 -10 18 21 46 39
70 45 21 6 39 13 39 15 0 9 -35 4 -66 -9z"/>
<path d="M781 781 c-11 -21 -37 -52 -58 -69 l-38 -32 32 11 c40 13 59 35 77
87 19 53 13 54 -13 3z"/>
<path d="M1563 1109 c-19 -7 -23 -16 -23 -51 0 -26 8 -57 21 -77 19 -31 23
-33 62 -28 30 4 50 15 70 37 45 50 28 97 -33 88 -18 -3 -31 0 -34 8 -8 21 -39
32 -63 23z m52 -59 c3 -5 15 -10 26 -10 24 0 25 -22 0 -37 -23 -15 -61 8 -61
38 0 20 24 26 35 9z"/>
</g>
</svg>
